<mxfile host="app.diagrams.net" modified="2024-06-14T19:26:07.546Z" agent="Mozilla/5.0 (Windows NT 10.0; Win64; x64) AppleWebKit/537.36 (KHTML, like Gecko) Chrome/125.0.0.0 Safari/537.36" etag="PNtV0g8GCc9LDBqMo1ay" version="24.5.4" type="google">
  <diagram name="Page-1" id="7Albkof5WGC6Pvgjltei">
    <mxGraphModel grid="1" page="1" gridSize="10" guides="1" tooltips="1" connect="1" arrows="1" fold="1" pageScale="1" pageWidth="850" pageHeight="1100" math="0" shadow="0">
      <root>
        <mxCell id="0" />
        <mxCell id="1" parent="0" />
        <mxCell id="xQmTrEk7y5srBk64jgJA-51" value="&lt;span style=&quot;font-size: 20px;&quot;&gt;&lt;b&gt;&lt;i&gt;ejercicio_14_AccesoALaBaseDeDatos&lt;/i&gt;&lt;/b&gt;&lt;/span&gt;" style="text;html=1;align=center;verticalAlign=middle;resizable=0;points=[];autosize=1;strokeColor=none;fillColor=none;" vertex="1" parent="1">
          <mxGeometry x="680" y="-2460" width="390" height="40" as="geometry" />
        </mxCell>
        <mxCell id="xQmTrEk7y5srBk64jgJA-52" value="&lt;b style=&quot;&quot;&gt;&lt;i&gt;&lt;font style=&quot;font-size: 20px;&quot;&gt;Patron Proxy&lt;/font&gt;&lt;/i&gt;&lt;/b&gt;" style="text;html=1;align=center;verticalAlign=middle;resizable=0;points=[];autosize=1;strokeColor=none;fillColor=none;" vertex="1" parent="1">
          <mxGeometry x="40" y="-3040" width="150" height="40" as="geometry" />
        </mxCell>
        <mxCell id="xQmTrEk7y5srBk64jgJA-53" value="&lt;&lt;interface&gt;&gt;&#xa;DatabaseAccess" style="swimlane;fontStyle=0;align=center;verticalAlign=top;childLayout=stackLayout;horizontal=1;startSize=40;horizontalStack=0;resizeParent=1;resizeLast=0;collapsible=1;marginBottom=0;rounded=0;shadow=0;strokeWidth=1;fillColor=#fff2cc;strokeColor=#d6b656;" vertex="1" parent="1">
          <mxGeometry x="360" y="-2960" width="320" height="120" as="geometry">
            <mxRectangle x="110" y="-20" width="160" height="26" as="alternateBounds" />
          </mxGeometry>
        </mxCell>
        <mxCell id="xQmTrEk7y5srBk64jgJA-58" value="" style="line;html=1;strokeWidth=1;align=left;verticalAlign=middle;spacingTop=-1;spacingLeft=3;spacingRight=3;rotatable=0;labelPosition=right;points=[];portConstraint=eastwest;" vertex="1" parent="xQmTrEk7y5srBk64jgJA-53">
          <mxGeometry y="40" width="320" height="8" as="geometry" />
        </mxCell>
        <mxCell id="xQmTrEk7y5srBk64jgJA-59" value="+ insertNewRow( rowData: String[*] ): Integer" style="text;align=left;verticalAlign=top;spacingLeft=4;spacingRight=4;overflow=hidden;rotatable=0;points=[[0,0.5],[1,0.5]];portConstraint=eastwest;rounded=0;shadow=0;html=0;" vertex="1" parent="xQmTrEk7y5srBk64jgJA-53">
          <mxGeometry y="48" width="320" height="24" as="geometry" />
        </mxCell>
        <mxCell id="xQmTrEk7y5srBk64jgJA-60" value="+ getSearchResults( queryString: String ): String[*]" style="text;align=left;verticalAlign=top;spacingLeft=4;spacingRight=4;overflow=hidden;rotatable=0;points=[[0,0.5],[1,0.5]];portConstraint=eastwest;rounded=0;shadow=0;html=0;" vertex="1" parent="xQmTrEk7y5srBk64jgJA-53">
          <mxGeometry y="72" width="320" height="22" as="geometry" />
        </mxCell>
        <mxCell id="Z0a0Ot1QTN_iW3QiTgoM-1" value="DatabaseRealAccess" style="swimlane;fontStyle=0;align=center;verticalAlign=top;childLayout=stackLayout;horizontal=1;startSize=40;horizontalStack=0;resizeParent=1;resizeLast=0;collapsible=1;marginBottom=0;rounded=0;shadow=0;strokeWidth=1;fillColor=#fff2cc;strokeColor=#d6b656;" vertex="1" parent="1">
          <mxGeometry x="120" y="-2690" width="340" height="142" as="geometry">
            <mxRectangle x="110" y="-20" width="160" height="26" as="alternateBounds" />
          </mxGeometry>
        </mxCell>
        <mxCell id="Z0a0Ot1QTN_iW3QiTgoM-5" value="- database" style="text;align=left;verticalAlign=top;spacingLeft=4;spacingRight=4;overflow=hidden;rotatable=0;points=[[0,0.5],[1,0.5]];portConstraint=eastwest;rounded=0;shadow=0;html=0;" vertex="1" parent="Z0a0Ot1QTN_iW3QiTgoM-1">
          <mxGeometry y="40" width="340" height="24" as="geometry" />
        </mxCell>
        <mxCell id="Z0a0Ot1QTN_iW3QiTgoM-2" value="" style="line;html=1;strokeWidth=1;align=left;verticalAlign=middle;spacingTop=-1;spacingLeft=3;spacingRight=3;rotatable=0;labelPosition=right;points=[];portConstraint=eastwest;" vertex="1" parent="Z0a0Ot1QTN_iW3QiTgoM-1">
          <mxGeometry y="64" width="340" height="8" as="geometry" />
        </mxCell>
        <mxCell id="Z0a0Ot1QTN_iW3QiTgoM-3" value="+ insertNewRow( rowData: String[*] ): Integer" style="text;align=left;verticalAlign=top;spacingLeft=4;spacingRight=4;overflow=hidden;rotatable=0;points=[[0,0.5],[1,0.5]];portConstraint=eastwest;rounded=0;shadow=0;html=0;" vertex="1" parent="Z0a0Ot1QTN_iW3QiTgoM-1">
          <mxGeometry y="72" width="340" height="24" as="geometry" />
        </mxCell>
        <mxCell id="Z0a0Ot1QTN_iW3QiTgoM-4" value="+ getSearchResults( queryString: String ): String[*]" style="text;align=left;verticalAlign=top;spacingLeft=4;spacingRight=4;overflow=hidden;rotatable=0;points=[[0,0.5],[1,0.5]];portConstraint=eastwest;rounded=0;shadow=0;html=0;" vertex="1" parent="Z0a0Ot1QTN_iW3QiTgoM-1">
          <mxGeometry y="96" width="340" height="22" as="geometry" />
        </mxCell>
        <mxCell id="Z0a0Ot1QTN_iW3QiTgoM-7" style="edgeStyle=orthogonalEdgeStyle;rounded=0;orthogonalLoop=1;jettySize=auto;html=1;entryX=0.25;entryY=1;entryDx=0;entryDy=0;exitX=0.5;exitY=0;exitDx=0;exitDy=0;endArrow=block;endFill=0;targetPerimeterSpacing=1;endSize=12;startSize=12;dashed=1;dashPattern=8 8;" edge="1" parent="1" source="Z0a0Ot1QTN_iW3QiTgoM-1" target="xQmTrEk7y5srBk64jgJA-53">
          <mxGeometry relative="1" as="geometry">
            <mxPoint x="490" y="-2580" as="sourcePoint" />
            <mxPoint x="380" y="-2580" as="targetPoint" />
            <Array as="points" />
          </mxGeometry>
        </mxCell>
        <mxCell id="Z0a0Ot1QTN_iW3QiTgoM-20" style="edgeStyle=orthogonalEdgeStyle;rounded=0;orthogonalLoop=1;jettySize=auto;html=1;" edge="1" parent="1" source="Z0a0Ot1QTN_iW3QiTgoM-9" target="Z0a0Ot1QTN_iW3QiTgoM-1">
          <mxGeometry relative="1" as="geometry" />
        </mxCell>
        <mxCell id="Z0a0Ot1QTN_iW3QiTgoM-9" value="DatabaseProxy" style="swimlane;fontStyle=0;align=center;verticalAlign=top;childLayout=stackLayout;horizontal=1;startSize=40;horizontalStack=0;resizeParent=1;resizeLast=0;collapsible=1;marginBottom=0;rounded=0;shadow=0;strokeWidth=1;fillColor=#fff2cc;strokeColor=#d6b656;" vertex="1" parent="1">
          <mxGeometry x="580" y="-2720" width="340" height="200" as="geometry">
            <mxRectangle x="110" y="-20" width="160" height="26" as="alternateBounds" />
          </mxGeometry>
        </mxCell>
        <mxCell id="Z0a0Ot1QTN_iW3QiTgoM-18" value="- isLogged : Boolean" style="text;align=left;verticalAlign=top;spacingLeft=4;spacingRight=4;overflow=hidden;rotatable=0;points=[[0,0.5],[1,0.5]];portConstraint=eastwest;rounded=0;shadow=0;html=0;" vertex="1" parent="Z0a0Ot1QTN_iW3QiTgoM-9">
          <mxGeometry y="40" width="340" height="24" as="geometry" />
        </mxCell>
        <mxCell id="Z0a0Ot1QTN_iW3QiTgoM-19" value="- password : String" style="text;align=left;verticalAlign=top;spacingLeft=4;spacingRight=4;overflow=hidden;rotatable=0;points=[[0,0.5],[1,0.5]];portConstraint=eastwest;rounded=0;shadow=0;html=0;" vertex="1" parent="Z0a0Ot1QTN_iW3QiTgoM-9">
          <mxGeometry y="64" width="340" height="24" as="geometry" />
        </mxCell>
        <mxCell id="Z0a0Ot1QTN_iW3QiTgoM-11" value="" style="line;html=1;strokeWidth=1;align=left;verticalAlign=middle;spacingTop=-1;spacingLeft=3;spacingRight=3;rotatable=0;labelPosition=right;points=[];portConstraint=eastwest;" vertex="1" parent="Z0a0Ot1QTN_iW3QiTgoM-9">
          <mxGeometry y="88" width="340" height="8" as="geometry" />
        </mxCell>
        <mxCell id="Z0a0Ot1QTN_iW3QiTgoM-23" value="+ LogIn ( password: String )" style="text;align=left;verticalAlign=top;spacingLeft=4;spacingRight=4;overflow=hidden;rotatable=0;points=[[0,0.5],[1,0.5]];portConstraint=eastwest;rounded=0;shadow=0;html=0;" vertex="1" parent="Z0a0Ot1QTN_iW3QiTgoM-9">
          <mxGeometry y="96" width="340" height="22" as="geometry" />
        </mxCell>
        <mxCell id="Z0a0Ot1QTN_iW3QiTgoM-24" value="+ LogOut ()" style="text;align=left;verticalAlign=top;spacingLeft=4;spacingRight=4;overflow=hidden;rotatable=0;points=[[0,0.5],[1,0.5]];portConstraint=eastwest;rounded=0;shadow=0;html=0;" vertex="1" parent="Z0a0Ot1QTN_iW3QiTgoM-9">
          <mxGeometry y="118" width="340" height="22" as="geometry" />
        </mxCell>
        <mxCell id="Z0a0Ot1QTN_iW3QiTgoM-12" value="+ insertNewRow( rowData: String[*] ): Integer" style="text;align=left;verticalAlign=top;spacingLeft=4;spacingRight=4;overflow=hidden;rotatable=0;points=[[0,0.5],[1,0.5]];portConstraint=eastwest;rounded=0;shadow=0;html=0;" vertex="1" parent="Z0a0Ot1QTN_iW3QiTgoM-9">
          <mxGeometry y="140" width="340" height="24" as="geometry" />
        </mxCell>
        <mxCell id="Z0a0Ot1QTN_iW3QiTgoM-13" value="+ getSearchResults( queryString: String ): String[*]" style="text;align=left;verticalAlign=top;spacingLeft=4;spacingRight=4;overflow=hidden;rotatable=0;points=[[0,0.5],[1,0.5]];portConstraint=eastwest;rounded=0;shadow=0;html=0;" vertex="1" parent="Z0a0Ot1QTN_iW3QiTgoM-9">
          <mxGeometry y="164" width="340" height="22" as="geometry" />
        </mxCell>
        <mxCell id="Z0a0Ot1QTN_iW3QiTgoM-14" style="edgeStyle=orthogonalEdgeStyle;rounded=0;orthogonalLoop=1;jettySize=auto;html=1;entryX=0.75;entryY=1;entryDx=0;entryDy=0;exitX=0.5;exitY=0;exitDx=0;exitDy=0;endArrow=block;endFill=0;targetPerimeterSpacing=1;endSize=12;startSize=12;dashed=1;dashPattern=8 8;" edge="1" parent="1" source="Z0a0Ot1QTN_iW3QiTgoM-9" target="xQmTrEk7y5srBk64jgJA-53">
          <mxGeometry relative="1" as="geometry">
            <mxPoint x="257" y="-2750" as="sourcePoint" />
            <mxPoint x="390" y="-2830" as="targetPoint" />
            <Array as="points" />
          </mxGeometry>
        </mxCell>
        <mxCell id="Z0a0Ot1QTN_iW3QiTgoM-15" value="&lt;font style=&quot;font-size: 16px;&quot;&gt;&lt;b style=&quot;font-size: 16px;&quot;&gt;&lt;i style=&quot;font-size: 16px;&quot;&gt;Real Subject&lt;/i&gt;&lt;/b&gt;&lt;/font&gt;" style="text;html=1;align=center;verticalAlign=middle;whiteSpace=wrap;rounded=0;fontSize=16;" vertex="1" parent="1">
          <mxGeometry x="120" y="-2710" width="110" height="20" as="geometry" />
        </mxCell>
        <mxCell id="Z0a0Ot1QTN_iW3QiTgoM-16" value="&lt;font style=&quot;font-size: 16px;&quot;&gt;&lt;b style=&quot;font-size: 16px;&quot;&gt;&lt;i style=&quot;font-size: 16px;&quot;&gt;Proxy&lt;/i&gt;&lt;/b&gt;&lt;/font&gt;" style="text;html=1;align=center;verticalAlign=middle;whiteSpace=wrap;rounded=0;fontSize=16;" vertex="1" parent="1">
          <mxGeometry x="580" y="-2740" width="70" height="20" as="geometry" />
        </mxCell>
        <mxCell id="Z0a0Ot1QTN_iW3QiTgoM-17" value="&lt;font style=&quot;font-size: 16px;&quot;&gt;&lt;b style=&quot;font-size: 16px;&quot;&gt;&lt;i style=&quot;font-size: 16px;&quot;&gt;Subject&lt;/i&gt;&lt;/b&gt;&lt;/font&gt;" style="text;html=1;align=center;verticalAlign=middle;whiteSpace=wrap;rounded=0;fontSize=16;" vertex="1" parent="1">
          <mxGeometry x="360" y="-2980" width="70" height="20" as="geometry" />
        </mxCell>
        <mxCell id="Z0a0Ot1QTN_iW3QiTgoM-25" value="database" style="text;html=1;align=center;verticalAlign=middle;whiteSpace=wrap;rounded=0;fontSize=14;" vertex="1" parent="1">
          <mxGeometry x="489.69000000000005" y="-2610" width="68.75" height="15" as="geometry" />
        </mxCell>
        <mxCell id="Z0a0Ot1QTN_iW3QiTgoM-26" value="1" style="text;html=1;align=center;verticalAlign=middle;whiteSpace=wrap;rounded=0;fontSize=14;" vertex="1" parent="1">
          <mxGeometry x="489.69000000000005" y="-2640" width="68.75" height="15" as="geometry" />
        </mxCell>
      </root>
    </mxGraphModel>
  </diagram>
</mxfile>
